<?xml version="1.0" standalone="no"?>
<!DOCTYPE svg PUBLIC "-//W3C//DTD SVG 20010904//EN"
 "http://www.w3.org/TR/2001/REC-SVG-20010904/DTD/svg10.dtd">
<svg version="1.0" xmlns="http://www.w3.org/2000/svg"
 width="1088.000000pt" height="1088.000000pt" viewBox="0 0 1088.000000 1088.000000"
 preserveAspectRatio="xMidYMid meet">
<metadata>
Created by potrace 1.14, written by Peter Selinger 2001-2017
</metadata>
<g transform="translate(0.000000,1088.000000) scale(0.100000,-0.100000)"
fill="#000000" stroke="none">
<path d="M605 8840 c-11 -4 -26 -5 -32 -3 -9 3 -13 -5 -14 -23 0 -16 -1 -1551
-2 -3411 -1 -2243 1 -3387 8 -3395 10 -13 64 -16 82 -5 5 3 15 2 23 -3 7 -4
24 -4 37 1 12 5 23 5 23 1 0 -8 63 -7 77 1 5 3 15 2 23 -3 7 -4 24 -4 37 1 12
5 23 5 23 1 0 -8 63 -7 77 1 5 3 15 2 23 -3 7 -4 24 -4 37 1 12 5 23 5 23 1 0
-8 63 -7 77 1 5 3 15 2 23 -3 7 -4 24 -4 37 1 12 5 23 5 23 1 0 -8 63 -7 77 1
5 3 15 2 22 -3 8 -4 27 -4 42 0 16 5 29 6 29 2 0 -8 133 -7 147 1 5 3 15 2 22
-3 8 -4 27 -4 42 0 16 5 29 6 29 2 0 -8 133 -7 147 1 5 3 15 2 22 -3 8 -4 27
-4 42 0 16 5 29 6 29 2 0 -4 33 -6 72 -4 91 3 81 3 159 0 36 -1 70 1 75 4 6 4
9 535 9 1402 0 922 3 1397 10 1399 6 2 571 3 1257 3 l1248 -1 1 25 c0 28 0
1317 -1 1367 l0 33 -1255 -3 c-690 -1 -1256 0 -1256 3 -1 3 -2 269 -3 593 -1
516 1 588 14 591 8 2 570 3 1248 2 679 0 1238 2 1244 5 7 5 14 1142 9 1397 -1
21 -5 23 -54 22 -28 -1 -61 1 -72 3 -11 2 -34 1 -52 -4 -18 -4 -33 -3 -33 1 0
5 -12 5 -27 2 -16 -4 -39 -6 -53 -5 -22 2 -46 3 -102 3 -10 0 -24 0 -30 0 -7
1 -47 0 -88 0 -41 0 -84 1 -95 3 -11 2 -34 1 -52 -4 -18 -4 -35 -3 -38 2 -3 4
-16 5 -28 1 -21 -7 -40 -7 -112 1 -16 2 -45 0 -63 -4 -17 -4 -34 -3 -37 2 -3
4 -16 4 -28 0 -12 -5 -32 -5 -44 0 -13 5 -23 5 -23 0 0 -5 -17 -5 -38 -1 -21
4 -47 4 -58 0 -10 -4 -28 -4 -39 0 -11 4 -34 4 -52 -1 -18 -4 -35 -3 -38 2 -3
4 -16 4 -28 0 -12 -5 -32 -5 -44 0 -15 5 -23 5 -23 -2 0 -6 -4 -8 -9 -5 -9 6
-31 7 -136 6 -27 -1 -59 1 -70 3 -11 2 -34 1 -52 -4 -18 -4 -33 -3 -33 1 0 5
-12 5 -27 2 -16 -4 -39 -6 -53 -5 -22 2 -46 3 -102 3 -10 0 -24 0 -30 0 -7 1
-47 0 -88 0 -41 0 -84 1 -95 3 -11 2 -34 1 -52 -4 -18 -4 -33 -3 -33 1 0 5
-12 5 -27 2 -16 -4 -39 -6 -53 -5 -22 2 -46 3 -102 3 -10 0 -24 0 -30 0 -7 1
-47 0 -88 0 -41 0 -84 1 -95 3 -11 2 -34 1 -52 -4 -18 -4 -35 -3 -38 2 -3 4
-16 5 -28 1 -21 -7 -40 -7 -112 1 -16 2 -45 0 -63 -4 -17 -4 -34 -3 -37 2 -3
4 -16 4 -28 0 -12 -5 -32 -5 -44 0 -13 5 -23 5 -23 0 0 -5 -17 -5 -38 -1 -21
4 -47 4 -58 0 -10 -4 -28 -4 -39 0 -11 4 -34 4 -52 -1 -18 -4 -35 -3 -38 2 -3
4 -16 4 -28 0 -12 -5 -32 -5 -44 0 -15 5 -23 5 -23 -2 0 -6 -4 -8 -9 -5 -9 6
-31 7 -136 6 -27 -1 -59 1 -70 3 -11 2 -34 1 -52 -4 -18 -4 -33 -3 -33 1 0 5
-12 5 -27 2 -16 -4 -39 -6 -53 -5 -22 2 -46 3 -102 3 -10 0 -24 0 -30 0 -7 1
-47 0 -88 0 -41 0 -84 1 -95 3 -11 2 -34 1 -52 -3 -17 -4 -35 -4 -40 0 -4 4
-17 4 -28 0z"/>
<path d="M5538 8843 c-14 -4 -18 -16 -19 -56 -1 -29 -1 -56 1 -62 5 -26 1
-255 -4 -264 -4 -6 -2 -11 4 -11 6 0 9 -4 6 -8 -5 -8 -6 -32 -6 -150 0 -35 -2
-67 -5 -73 -4 -5 -1 -9 5 -9 6 0 9 -4 6 -8 -5 -9 -7 -54 -5 -127 0 -22 0 -71
0 -110 0 -38 0 -77 0 -85 0 -8 0 -44 0 -80 -1 -36 0 -111 2 -168 1 -56 -1
-102 -5 -102 -4 0 -4 -10 1 -22 4 -12 5 -39 1 -60 -4 -22 -3 -38 2 -38 5 0 7
-4 4 -9 -6 -8 -7 -55 -6 -219 1 -40 -2 -77 -5 -82 -4 -6 -1 -10 5 -10 6 0 9
-4 6 -9 -5 -7 -7 -89 -5 -161 0 -8 0 -44 0 -80 -1 -36 -1 -115 0 -177 1 -61
-2 -116 -6 -122 -3 -6 -1 -11 5 -11 6 0 9 -4 6 -8 -5 -8 -6 -32 -6 -150 0 -35
-2 -67 -5 -73 -4 -5 -1 -9 5 -9 6 0 9 -4 6 -8 -5 -9 -7 -54 -5 -127 0 -22 0
-71 0 -110 0 -38 0 -77 0 -85 0 -8 0 -44 0 -80 0 -36 0 -72 0 -80 0 -8 0 -44
0 -80 0 -36 0 -72 0 -80 0 -8 0 -44 0 -80 -1 -36 -1 -115 0 -177 1 -61 -2
-116 -6 -122 -3 -6 -1 -11 5 -11 6 0 9 -4 6 -8 -5 -8 -6 -32 -6 -150 0 -35 -2
-67 -5 -73 -4 -5 -1 -9 5 -9 6 0 9 -4 6 -8 -5 -9 -7 -54 -5 -127 0 -22 0 -71
0 -110 0 -38 0 -77 0 -85 0 -8 0 -44 0 -80 -1 -36 0 -111 2 -168 1 -56 -1
-102 -5 -102 -4 0 -4 -10 1 -22 4 -12 5 -39 1 -60 -4 -22 -3 -38 2 -38 5 0 7
-4 4 -9 -6 -8 -7 -55 -6 -219 1 -40 -2 -77 -5 -82 -4 -6 -3 -10 2 -10 9 0 8
-113 -1 -129 -4 -6 -4 -11 1 -11 8 0 7 -104 -1 -126 -3 -7 -174 -10 -550 -10
l-546 1 0 -803 0 -803 23 -8 c12 -5 29 -5 38 0 9 4 19 6 23 2 7 -8 290 -8 303
0 6 4 13 4 16 0 6 -5 359 -8 382 -3 6 1 12 2 15 1 18 -7 150 -4 150 2 0 4 8 4
17 -2 10 -5 26 -5 39 -1 12 5 24 6 27 3 9 -9 67 -10 67 0 0 4 5 5 12 1 16 -10
128 -11 150 -2 9 5 19 4 22 -1 3 -5 21 -5 41 -1 19 4 35 5 35 1 0 -8 105 -5
120 4 5 3 10 2 10 -2 0 -5 15 -7 33 -5 l34 4 -1 2429 c-1 1336 1 2429 5 2429
3 0 15 -19 27 -42 11 -24 40 -77 62 -118 23 -41 75 -138 117 -215 42 -77 86
-158 98 -180 12 -22 59 -110 105 -195 46 -85 90 -163 98 -172 8 -10 12 -18 7
-18 -4 0 -2 -6 4 -14 6 -7 29 -47 51 -87 21 -41 50 -94 64 -119 14 -25 34 -63
45 -85 11 -22 35 -67 54 -100 18 -33 57 -105 87 -160 75 -141 91 -168 102
-182 6 -7 7 -13 3 -13 -5 0 -2 -8 6 -17 16 -20 30 -46 61 -106 12 -23 31 -55
42 -72 12 -16 19 -30 17 -30 -3 0 7 -20 21 -45 14 -25 42 -76 63 -115 65 -121
107 -199 224 -414 28 -52 51 -97 51 -102 0 -4 3 -9 8 -11 4 -1 15 -19 24 -38
10 -19 37 -71 61 -115 24 -44 67 -125 97 -180 29 -55 56 -104 60 -110 4 -5 31
-55 60 -110 29 -55 62 -116 73 -135 11 -19 37 -69 59 -110 75 -141 83 -155 96
-168 6 -7 12 -22 12 -32 0 -10 4 -20 8 -22 7 -3 44 -70 207 -373 121 -224 219
-401 226 -410 5 -5 9 -17 9 -27 0 -10 5 -18 10 -18 6 0 10 -6 10 -14 0 -8 3
-16 8 -18 4 -1 19 -28 34 -58 15 -30 55 -104 88 -165 34 -60 64 -118 67 -128
3 -11 14 -17 27 -16 11 0 23 0 26 -1 18 -6 300 -3 300 3 0 5 5 5 11 2 16 -11
69 -12 69 -2 0 4 5 5 12 1 16 -10 128 -11 149 -2 9 4 19 5 22 2 9 -10 147 -10
147 -1 0 4 8 4 17 -2 10 -5 26 -5 39 -1 12 5 24 6 27 3 9 -9 67 -10 67 0 0 4
5 5 12 1 16 -10 128 -11 149 -2 9 4 19 5 22 2 9 -10 147 -10 147 -1 0 4 8 4
17 -2 10 -5 26 -5 39 -1 12 5 24 6 27 3 9 -9 67 -10 67 0 0 4 5 5 12 1 16 -10
128 -11 149 -2 9 4 19 5 22 2 9 -10 147 -10 147 -1 0 4 8 4 17 -2 10 -5 26 -5
39 -1 12 5 24 6 27 3 9 -9 67 -10 67 0 0 4 6 5 12 1 16 -10 87 -11 116 -2 12
4 22 4 22 -1 0 -5 12 -6 28 -2 l27 7 1 3416 1 3415 -56 2 c-31 0 -67 1 -81 0
-14 0 -31 0 -37 0 -7 1 -21 1 -30 1 -10 0 -40 0 -68 0 -27 0 -67 0 -87 0 -21
0 -49 0 -63 0 -14 0 -31 0 -37 0 -7 0 -40 0 -73 0 -33 0 -71 0 -85 -1 -14 0
-31 0 -37 0 -7 1 -21 1 -30 1 -10 0 -40 0 -68 0 -27 0 -67 0 -87 0 -21 0 -49
0 -63 0 -42 0 -48 0 -105 0 -30 -1 -69 0 -87 2 -17 2 -30 0 -27 -4 6 -10 6
-10 -31 1 -17 4 -39 5 -50 1 -11 -4 -32 -4 -47 1 -15 4 -30 4 -33 -1 -3 -5
-18 -5 -33 -1 -15 5 -36 5 -47 1 -11 -4 -34 -4 -52 0 -20 5 -31 4 -27 -1 3 -6
-6 -7 -22 -3 -16 4 -34 7 -41 6 -7 -1 -24 -2 -37 -3 -22 -1 -23 -5 -24 -73 0
-39 -1 -107 -1 -151 -1 -44 -1 -214 0 -377 0 -163 -2 -301 -5 -307 -4 -5 -2
-12 4 -16 6 -4 8 -10 5 -15 -6 -10 -7 -77 -3 -168 2 -28 -1 -52 -5 -52 -5 0
-5 -5 -2 -10 6 -10 9 -145 6 -335 -1 -76 -2 -339 -2 -360 3 -169 2 -315 -3
-323 -3 -6 -2 -13 4 -17 6 -4 8 -10 5 -15 -6 -10 -7 -77 -3 -168 2 -28 -1 -52
-5 -52 -5 0 -5 -5 -2 -10 6 -10 9 -156 6 -335 -1 -44 -1 -214 0 -377 0 -163
-2 -301 -5 -307 -4 -5 -2 -12 4 -16 6 -4 8 -10 5 -15 -6 -10 -7 -77 -3 -168 2
-28 -1 -52 -5 -52 -5 0 -5 -5 -2 -10 6 -10 9 -145 6 -335 -1 -86 -2 -340 -2
-365 3 -151 1 -423 -3 -427 -3 -3 -9 3 -13 13 -4 10 -19 40 -34 66 -15 25 -25
49 -22 52 4 3 1 6 -5 6 -6 0 -14 10 -18 23 -4 12 -15 33 -25 46 -11 13 -19 32
-19 42 0 9 -4 19 -8 21 -5 2 -30 44 -57 93 -26 50 -56 104 -65 120 -9 17 -36
66 -60 110 -23 44 -69 127 -100 185 -31 58 -76 141 -100 185 -40 75 -65 120
-130 240 -42 77 -154 283 -190 350 -18 33 -48 89 -68 125 -19 36 -47 88 -62
115 -15 28 -47 86 -70 130 -24 44 -51 94 -60 110 -9 17 -38 71 -65 120 -26 50
-59 110 -73 135 -14 25 -45 83 -70 130 -25 47 -54 99 -63 115 -10 17 -26 46
-36 65 -9 19 -48 90 -85 158 -37 67 -68 124 -68 127 0 2 -17 34 -38 72 -22 37
-56 100 -77 138 -21 39 -50 93 -65 120 -15 28 -44 82 -65 120 -20 39 -50 93
-65 120 -57 105 -115 212 -138 255 -13 25 -33 63 -46 85 -24 43 -77 142 -146
270 -24 44 -48 89 -54 100 -6 11 -17 28 -25 38 -8 9 -11 17 -8 17 4 0 -7 22
-23 49 -17 26 -30 53 -30 59 0 6 -3 12 -7 14 -5 2 -16 19 -25 38 -18 37 -77
146 -143 265 -21 39 -55 102 -75 140 l-37 70 -74 3 c-41 1 -81 3 -89 2 -8 0
-37 0 -65 0 -27 0 -67 0 -87 0 -21 0 -49 0 -63 0 -14 0 -31 0 -37 0 -7 0 -40
0 -73 0 -33 0 -71 0 -85 -1 -14 0 -31 0 -37 0 -32 2 -162 2 -255 0 -25 -1 -50
1 -55 3 -4 3 -16 3 -25 1z"/>
</g>
</svg>
